<?xml version="1.0" encoding="utf-8"?>
<svg version="1.1" xmlns:xlink="http://www.w3.org/1999/xlink" width="56px" height="20px" xmlns="http://www.w3.org/2000/svg">
  <defs>
    <mask fill="white" id="clip3">
      <path d="M 0 15  L 0 5  C 0 2.2  2.20000000000005 0  5 0  L 24.7999999999993 0  L 51 0  C 53.8 0  56 2.2  56 5  L 56 15  C 56 17.8  53.8 20  51 20  L 5 20  C 2.20000000000005 20  0 17.8  0 15  Z " fill-rule="evenodd" />
    </mask>
  </defs>
  <g transform="matrix(1 0 0 1 -813 -96 )">
    <path d="M 0 15  L 0 5  C 0 2.2  2.20000000000005 0  5 0  L 24.7999999999993 0  L 51 0  C 53.8 0  56 2.2  56 5  L 56 15  C 56 17.8  53.8 20  51 20  L 5 20  C 2.20000000000005 20  0 17.8  0 15  Z " fill-rule="nonzero" fill="#ffffff" stroke="none" transform="matrix(1 0 0 1 813 96 )" />
    <path d="M 0 15  L 0 5  C 0 2.2  2.20000000000005 0  5 0  L 24.7999999999993 0  L 51 0  C 53.8 0  56 2.2  56 5  L 56 15  C 56 17.8  53.8 20  51 20  L 5 20  C 2.20000000000005 20  0 17.8  0 15  Z " stroke-width="2" stroke="#797979" fill="none" transform="matrix(1 0 0 1 813 96 )" mask="url(#clip3)" />
  </g>
</svg>